<svg width="18" height="18" viewBox="0 0 18 18" fill="none" xmlns="http://www.w3.org/2000/svg">
<path d="M17.1562 9H2.8125V3.21429C2.8125 2.50533 3.31717 1.92857 3.9375 1.92857C4.33656 1.92857 4.68745 2.16743 4.88725 2.52643C4.30745 3.53921 4.37091 4.92011 5.12764 5.86266C4.98083 6.05202 4.98628 6.34142 5.14491 6.52271L5.54266 6.97729C5.70741 7.16557 5.97452 7.16557 6.1393 6.97729L9.4802 3.15916C9.64494 2.97088 9.64494 2.66561 9.4802 2.47729L9.08244 2.02271C8.92382 1.84142 8.67059 1.83524 8.5049 2.00298C7.87388 1.34128 7.018 1.142 6.24864 1.38564C5.74035 0.54912 4.89417 0 3.9375 0C2.38669 0 1.125 1.44193 1.125 3.21429V9H0.84375C0.377754 9 0 9.43172 0 9.96429V10.6071C0 11.1397 0.377754 11.5714 0.84375 11.5714H1.125V12.8571C1.125 13.9994 1.5596 15.0255 2.25 15.7318V17.0357C2.25 17.5683 2.62775 18 3.09375 18H3.65625C4.12225 18 4.5 17.5683 4.5 17.0357V16.7143H13.5V17.0357C13.5 17.5683 13.8778 18 14.3438 18H14.9062C15.3722 18 15.75 17.5683 15.75 17.0357V15.7318C16.4404 15.0255 16.875 13.9994 16.875 12.8571V11.5714H17.1562C17.6222 11.5714 18 11.1397 18 10.6071V9.96429C18 9.43172 17.6222 9 17.1562 9Z" fill="#6E6E6E" fill-opacity="0.71"/>
</svg>
