<svg width="18" height="12" viewBox="0 0 18 12" fill="none" xmlns="http://www.w3.org/2000/svg">
<path d="M4.95 6.0001C6.19059 6.0001 7.2 4.99069 7.2 3.7501C7.2 2.5095 6.19059 1.5001 4.95 1.5001C3.70941 1.5001 2.7 2.5095 2.7 3.7501C2.7 4.99069 3.70941 6.0001 4.95 6.0001ZM14.85 2.4001H8.55C8.30137 2.4001 8.1 2.60147 8.1 2.8501V6.9001H1.8V1.0501C1.8 0.801473 1.59862 0.600098 1.35 0.600098H0.45C0.201375 0.600098 0 0.801473 0 1.0501V10.9501C0 11.1987 0.201375 11.4001 0.45 11.4001H1.35C1.59862 11.4001 1.8 11.1987 1.8 10.9501V9.6001H16.2V10.9501C16.2 11.1987 16.4014 11.4001 16.65 11.4001H17.55C17.7986 11.4001 18 11.1987 18 10.9501V5.5501C18 3.81029 16.5898 2.4001 14.85 2.4001Z" fill="#6E6E6E" fill-opacity="0.71"/>
</svg>
