<svg width="18" height="18" viewBox="0 0 18 18" fill="none" xmlns="http://www.w3.org/2000/svg">
<path d="M18 4.5V1.125C18 0.503789 17.4962 0 16.875 0H13.5C12.8788 0 12.375 0.503789 12.375 1.125H5.625C5.625 0.503789 5.12121 0 4.5 0H1.125C0.503789 0 0 0.503789 0 1.125V4.5C0 5.12121 0.503789 5.625 1.125 5.625V12.375C0.503789 12.375 0 12.8788 0 13.5V16.875C0 17.4962 0.503789 18 1.125 18H4.5C5.12121 18 5.625 17.4962 5.625 16.875H12.375C12.375 17.4962 12.8788 18 13.5 18H16.875C17.4962 18 18 17.4962 18 16.875V13.5C18 12.8788 17.4962 12.375 16.875 12.375V5.625C17.4962 5.625 18 5.12121 18 4.5ZM14.625 2.25H15.75V3.375H14.625V2.25ZM2.25 2.25H3.375V3.375H2.25V2.25ZM3.375 15.75H2.25V14.625H3.375V15.75ZM15.75 15.75H14.625V14.625H15.75V15.75ZM14.625 12.375H13.5C12.8788 12.375 12.375 12.8788 12.375 13.5V14.625H5.625V13.5C5.625 12.8788 5.12121 12.375 4.5 12.375H3.375V5.625H4.5C5.12121 5.625 5.625 5.12121 5.625 4.5V3.375H12.375V4.5C12.375 5.12121 12.8788 5.625 13.5 5.625H14.625V12.375Z" fill="#6E6E6E" fill-opacity="0.71"/>
</svg>
